<svg width="191" height="39" viewBox="0 0 191 39" fill="none" xmlns="http://www.w3.org/2000/svg">
<path fill-rule="evenodd" clip-rule="evenodd" d="M174.972 13.2201C174.551 13.2201 174.337 13.4311 174.337 13.8561V16.7453C174.337 17.1672 174.548 17.3812 174.972 17.3812H178.315V25.5597C178.315 30.5647 179.829 32.5764 185.461 32.5764H189.72C190.177 32.5764 190.354 32.3655 190.354 31.9405V29.0482C190.354 28.6263 190.177 28.4123 189.72 28.4123H186.307C183.984 28.4123 183.349 27.4951 183.349 25.5567V17.3782H189.509C189.967 17.3782 190.144 17.1672 190.144 16.7422V13.853C190.144 13.4311 189.967 13.2171 189.509 13.2171H183.349V8.56373C183.349 8.03481 183.068 7.78716 182.573 7.78716H179.087C178.596 7.78716 178.312 8.03481 178.312 8.56373V13.2171H174.969L174.972 13.2201ZM167.264 13.2201C166.736 13.2201 166.489 13.5014 166.489 14.0303V31.7968C166.489 32.3257 166.736 32.5734 167.264 32.5734H170.714C171.242 32.5734 171.489 32.3257 171.489 31.7968V14.0303C171.489 13.5014 171.242 13.2201 170.714 13.2201H167.264ZM153.43 17.4515C156.491 17.4515 157.3 18.3688 157.3 21.3283V24.4652C157.3 27.4278 156.491 28.342 153.43 28.342H144.559C141.53 28.342 140.721 27.4247 140.721 24.4652V17.4485H153.43V17.4515ZM136.5 6.13617C135.971 6.13617 135.691 6.38381 135.691 6.91274V25.4558C135.691 30.5677 137.733 32.5764 144.067 32.5764H153.924C160.261 32.5764 162.301 30.5677 162.301 25.4558V20.3805C162.301 15.2686 160.258 13.2232 153.924 13.2232H140.724V6.91274C140.724 6.38381 140.477 6.13617 139.949 6.13617H136.5ZM112.951 13.2232C106.614 13.2232 104.575 15.2686 104.575 20.3805V31.8029C104.575 32.3318 104.856 32.5795 105.384 32.5795H108.833C109.361 32.5795 109.609 32.3318 109.609 31.8029V21.579C109.609 18.6164 110.418 17.7023 113.446 17.7023H122.808C125.837 17.7023 126.435 18.6195 126.435 21.579V31.8029C126.435 32.3318 126.682 32.5795 127.21 32.5795H130.66C131.188 32.5795 131.435 32.3318 131.435 31.8029V20.3805C131.435 15.2686 129.393 13.2232 123.059 13.2232H112.957H112.951ZM81.8356 13.2232C75.4983 13.2232 73.4591 15.2686 73.4591 20.3805V31.8029C73.4591 32.3318 73.74 32.5795 74.2681 32.5795H77.7176C78.2457 32.5795 78.4929 32.3318 78.4929 31.8029V21.579C78.4929 18.6164 79.3019 17.7023 82.3301 17.7023H91.6926C94.7209 17.7023 95.3192 18.6195 95.3192 21.579V31.8029C95.3192 32.3318 95.5665 32.5795 96.0946 32.5795H99.5441C100.072 32.5795 100.319 32.3318 100.319 31.8029V20.3805C100.319 15.2686 98.2772 13.2232 91.9429 13.2232H81.8417H81.8356ZM64.8689 13.2232C64.3408 13.2232 64.0936 13.5045 64.0936 14.0334V31.7999C64.0936 32.3288 64.3408 32.5764 64.8689 32.5764H68.3184C68.8466 32.5764 69.0938 32.3288 69.0938 31.7999V14.0334C69.0938 13.5045 68.8466 13.2232 68.3184 13.2232H64.8689Z" fill="#3B3B3A"/>
<path fill-rule="evenodd" clip-rule="evenodd" d="M167.264 6.06281C166.736 6.06281 166.455 6.31045 166.455 6.83938V10.1872C166.455 10.7161 166.736 10.9974 167.264 10.9974H170.714C171.242 10.9974 171.489 10.7161 171.489 10.1872V6.83938C171.489 6.31045 171.242 6.06281 170.714 6.06281H167.264Z" fill="#E3000F"/>
<path fill-rule="evenodd" clip-rule="evenodd" d="M64.8689 6.06281C64.3408 6.06281 64.06 6.31045 64.06 6.83938V10.1872C64.06 10.7161 64.3408 10.9974 64.8689 10.9974H68.3184C68.8465 10.9974 69.0938 10.7161 69.0938 10.1872V6.83938C69.0938 6.31045 68.8465 6.06281 68.3184 6.06281H64.8689Z" fill="#E3000F"/>
<path fill-rule="evenodd" clip-rule="evenodd" d="M4.75603 3.86453H7.28364C8.11701 3.86453 8.79775 4.54633 8.79775 5.381V7.91251C8.79775 8.74718 8.11701 9.42897 7.28364 9.42897H4.75603C3.92266 9.42897 3.24192 8.74718 3.24192 7.91251V5.381C3.24192 4.54633 3.92266 3.86453 4.75603 3.86453ZM7.8728 15.5223H11.4658C12.6502 15.5223 13.6179 16.4946 13.6179 17.6778V21.2763C13.6179 22.4626 12.6471 23.4318 11.4658 23.4318H7.8728C6.68837 23.4318 5.72067 22.4626 5.72067 21.2763V17.6778C5.72067 16.4915 6.68837 15.5223 7.8728 15.5223ZM1.05317 27.6663H2.8115C3.3915 27.6663 3.86466 28.1402 3.86466 28.7211V30.4821C3.86466 31.063 3.3915 31.5369 2.8115 31.5369H1.05317C0.473161 31.5369 0 31.063 0 30.4821V28.7211C0 28.1402 0.473161 27.6663 1.05317 27.6663ZM34.3973 6.63758H37.4897C38.6802 6.63758 39.654 7.61288 39.654 8.80526V11.9024C39.654 13.0948 38.6802 14.067 37.4897 14.067H34.3973C33.2068 14.067 32.233 13.0917 32.233 11.9024V8.80526C32.233 7.61288 33.2068 6.63758 34.3973 6.63758ZM27.3945 0C22.9651 0 19.1554 2.79445 17.6321 6.7079H15.9837C14.8939 6.7079 14.0025 7.60066 14.0025 8.69214V12.0033C14.0025 13.0948 14.8939 13.9875 15.9837 13.9875H20.3002C21.6555 13.9875 22.7667 15.0974 22.7667 16.4579V19.9892C22.7667 21.3467 21.6586 22.4595 20.3002 22.4595H18.8257C17.0735 22.4595 16.927 22.8387 16.927 24.4805V25.6423H15.074C14.3139 25.6423 13.6912 26.266 13.6912 27.0273V29.3387C13.6912 30.0999 14.3139 30.7237 15.074 30.7237H17.2963C18.5082 35.1691 22.5866 38.4619 27.3976 38.4619H32.236V19.3716C32.236 18.2434 33.1549 17.3231 34.2813 17.3231H37.5324C38.6588 17.3231 39.5777 18.2465 39.5777 19.3716V38.4619H45.335L45.3472 38.4497C50.8817 38.1928 55.3294 33.5793 55.3294 27.9781V10.4868C55.3294 8.95202 54.9966 7.49059 54.3983 6.17286C53.7603 4.76646 52.5606 3.23165 51.3457 2.26858C49.5599 0.849952 47.3039 0 44.8618 0H27.3976H27.3945Z" fill="#E3000F"/>
</svg>
